<?xml version="1.0" encoding="UTF-8" standalone="no"?><!DOCTYPE svg PUBLIC "-//W3C//DTD SVG 1.1//EN" "http://www.w3.org/Graphics/SVG/1.1/DTD/svg11.dtd"><svg width="100%" height="100%" viewBox="0 0 400 225" version="1.1" xmlns="http://www.w3.org/2000/svg" xmlns:xlink="http://www.w3.org/1999/xlink" xml:space="preserve" xmlns:serif="http://www.serif.com/" style="fill-rule:evenodd;clip-rule:evenodd;stroke-miterlimit:10;"><g id="Layer-1" serif:id="Layer 1"><path d="M115.455,118.787c-4.949,1.903 -11.43,0.168 -13.998,-6.507c-2.582,-6.714 1.051,-12.383 6,-14.287c3.452,-1.328 6.929,-0.991 9.768,1.352l0.461,-0.178c-2.99,-2.505 -6.756,-2.907 -10.362,-1.52c-5.179,1.993 -8.936,7.798 -6.25,14.78c2.671,6.944 9.364,8.773 14.528,6.743c3.684,-1.416 6.351,-4.557 6.664,-8.552l-0.46,0.177c-0.434,3.91 -2.783,6.62 -6.351,7.992m-9.268,-24.094c5.564,-2.139 12.753,-1.426 16.548,5.351l-6.752,2.597c-2.007,-2.355 -4.513,-2.801 -7.39,-1.694c-4.028,1.549 -5.51,5.598 -3.798,10.049c1.52,3.951 5.457,6.401 9.538,4.875c2.916,-1.122 4.695,-3.48 4.318,-6.637l6.752,-2.598c1.925,7.981 -2.948,13.29 -8.665,15.488c-6.814,2.665 -15.49,0.718 -19.041,-8.398c-3.473,-9.146 1.662,-16.406 8.49,-19.033" style="fill:#d69e1d;fill-rule:nonzero;"/><path d="M148.353,94.286c3.749,9.744 -9.717,14.924 -13.466,5.179c-3.718,-9.668 9.748,-14.848 13.466,-5.179m-16.765,6.448c5.401,14.042 25.363,6.056 20.065,-7.717c-5.283,-13.735 -25.451,-6.286 -20.065,7.717m20.449,-7.865c-5.549,-14.425 -26.366,-6.374 -20.833,8.013c5.548,14.425 26.381,6.412 20.833,-8.013m-24.209,9.311c-7.142,-18.569 20.404,-29.163 27.546,-10.595c7.157,18.607 -20.389,29.203 -27.546,10.595" style="fill:#d69e1d;fill-rule:nonzero;"/><path d="M173.426,92.834l-3.261,1.254l-5.519,-14.349l3.261,-1.254c8.556,-3.291 14.075,11.058 5.519,14.349m-6.747,-17.312l-6.368,2.45l7.806,20.295l6.369,-2.45c12.876,-4.996 5.114,-25.177 -7.807,-20.295m-0.147,-0.384l-6.714,2.583l8.117,21.101l6.713,-2.583c13.352,-5.135 5.235,-26.236 -8.116,-21.101m9.3,23.949l-10.129,3.896l-10.33,-26.856l10.129,-3.896c17.524,-6.651 27.795,20.051 10.33,26.856" style="fill:#d69e1d;fill-rule:nonzero;"/><path d="M201.878,85.854l-0.148,-0.384l-3.99,1.535l-7.865,-20.448l3.683,-1.417l-0.147,-0.385l-7.789,2.996l0.148,0.385l3.721,-1.432l7.866,20.449l-4.067,1.564l0.147,0.383l8.441,-3.246Zm-9.934,7.036l-2.316,-6.023l3.414,-1.314l-5.711,-14.848l-3.146,1.211l-2.302,-5.985l13.082,-5.032l2.302,5.985l-3.145,1.21l5.711,14.847l3.415,-1.313l2.316,6.023l-13.62,5.239Z" style="fill:#d69e1d;fill-rule:nonzero;"/><path d="M205.775,63.7c3.674,1.538 7.379,3.151 10.976,4.718c3.544,1.544 7.073,3.049 10.709,4.601l0.307,-0.118l-7.246,-18.837l-0.421,0.162l6.995,18.186c-3.704,-1.615 -7.37,-3.244 -11.068,-4.728c-3.467,-1.574 -7.011,-3.116 -10.542,-4.622l-0.421,0.162l7.23,18.799l0.461,-0.177l-6.98,-18.146Zm4.277,22.225l-10.374,-26.971l2.494,-0.959l18.686,8.051l-5.061,-13.159l7.021,-2.701l10.344,26.894l-2.455,0.944l-18.634,-8.027l5.076,13.198l-7.097,2.73Z" style="fill:#d69e1d;fill-rule:nonzero;"/><path d="M250.919,66.683c-5.832,2.243 -11.695,-0.522 -13.997,-6.507c-2.273,-5.908 0.167,-12.044 6.013,-14.248c3.147,-1.211 6.747,-1.01 9.444,1.079l0.461,-0.177c-2.877,-2.328 -6.853,-2.473 -10.037,-1.248c-5.218,2.007 -8.99,7.774 -6.304,14.757c2.686,6.982 9.365,8.773 14.567,6.728c5.448,-2.096 8.24,-7.662 6.071,-13.302l-0.162,-0.421l-7.098,2.73l0.162,0.421l6.676,-2.567c2.047,5.554 -0.464,10.704 -5.796,12.755m-9.282,-24.132c5.424,-2.042 12.142,-1.41 16.014,4.764l-6.752,2.597c-1.998,-1.875 -4.118,-2.116 -6.841,-1.069c-4.336,1.668 -5.377,5.944 -3.799,10.049c1.712,4.45 5.442,6.363 9.509,4.799c2.762,-1.063 4.247,-2.471 4.486,-5.513l-5.717,2.199l-2.287,-5.947l12.699,-4.885c1.187,2.627 2.175,5.197 2.258,8.16c0.236,6.34 -4.04,10.45 -8.989,12.354c-6.829,2.626 -15.491,0.718 -19.056,-8.437c-3.489,-9.184 1.646,-16.444 8.475,-19.071" style="fill:#d69e1d;fill-rule:nonzero;"/><path d="M95.46,157.465l-5.486,2.111l-1.697,-4.412l5.447,-2.096c2.763,-1.062 4.498,3.335 1.736,4.397m-5.135,-9.915l-4.335,1.667l-1.638,-4.258l4.297,-1.653c2.762,-1.062 4.4,3.196 1.676,4.244m6.626,12.646c2.647,-1.018 3.898,-4.407 2.85,-7.13c-1.047,-2.724 -4.07,-3.94 -6.717,-2.922l-8.9,3.424l3.866,10.052l8.901,-3.424Zm-5.074,-9.984c2.762,-1.062 3.964,-4.123 2.916,-6.847c-1.033,-2.685 -4.082,-4.2 -6.767,-3.167l-7.827,3.01l3.852,10.014l7.826,-3.01Zm5.221,10.368c2.916,-1.122 4.193,-4.784 3.087,-7.662c-0.974,-2.532 -3.846,-4.158 -6.461,-3.284l-0.059,-0.154c1.78,-1.213 2.279,-4.267 1.512,-6.262c-1.122,-2.916 -4.406,-4.471 -7.284,-3.364l-8.21,3.157l8.131,21.139l9.284,-3.57Zm0.938,-13.134c2.615,0.272 4.419,1.868 5.333,4.247c1.762,4.696 0.384,9.586 -5.102,11.696l-12.584,4.84l-10.33,-26.856l11.471,-4.412c4.643,-1.786 9.752,0.39 11.537,5.032c0.62,1.611 0.566,3.878 -0.325,5.453" style="fill:#d69e1d;fill-rule:nonzero;"/><path d="M106.319,132.458l-0.422,0.162l8.205,21.331l10.781,-4.146l-0.133,-0.346l-10.359,3.985l-8.072,-20.986Zm19.918,13.082l2.376,6.177l-16.65,6.404l-10.33,-26.856l6.906,-2.656l7.953,20.68l9.745,-3.749Z" style="fill:#d69e1d;fill-rule:nonzero;"/><path d="M138.637,129.804l5.215,5.085l-5.602,2.155l0.387,-7.24Zm-2.544,-6.728l-0.039,0.015l-1.206,18.388l14.54,-5.592l-13.295,-12.811Zm-2.077,23.568l0.498,-0.192l0.342,-4.491l14.848,-5.711l3.226,3.119l0.498,-0.191l-17.583,-16.975l-0.23,0.088l-1.599,24.353Zm3.842,1.517l-6.714,2.582l-0.384,-0.997l2.006,-30.852l2.955,-1.136l22.202,21.541l0.383,0.997l-6.713,2.582l-2.872,-2.77l-10.588,4.072l-0.275,3.981Z" style="fill:#d69e1d;fill-rule:nonzero;"/><path d="M172.816,131.192c-4.948,1.903 -11.429,0.168 -13.997,-6.507c-2.582,-6.715 1.051,-12.384 6,-14.288c3.453,-1.328 6.929,-0.991 9.768,1.353l0.461,-0.178c-2.99,-2.505 -6.756,-2.907 -10.362,-1.52c-5.18,1.992 -8.936,7.798 -6.251,14.78c2.671,6.944 9.365,8.773 14.529,6.743c3.683,-1.416 6.351,-4.557 6.664,-8.552l-0.46,0.177c-0.434,3.91 -2.783,6.619 -6.352,7.992m-9.266,-24.094c5.563,-2.14 12.752,-1.426 16.547,5.351l-6.752,2.597c-2.007,-2.355 -4.513,-2.801 -7.39,-1.694c-4.028,1.55 -5.51,5.598 -3.798,10.049c1.52,3.951 5.457,6.401 9.538,4.874c2.916,-1.121 4.695,-3.479 4.318,-6.636l6.752,-2.597c1.924,7.98 -2.948,13.289 -8.665,15.487c-6.813,2.666 -15.49,0.718 -19.04,-8.398c-3.475,-9.146 1.661,-16.406 8.49,-19.033" style="fill:#d69e1d;fill-rule:nonzero;"/><path d="M197.972,109.229l11.069,8.513l0.461,-0.177l-11.244,-8.622c4.099,-3.427 3.949,-8.17 2.169,-12.682l-0.383,0.148c1.696,4.411 1.622,8.227 -0.913,11.14c-1.1,1.26 -2.812,2.535 -4.807,3.303l-3.798,1.46l-4.102,-10.665l-0.499,0.192l8.308,21.599l0.498,-0.192l-4.087,-10.626l3.837,-1.476c1.151,-0.443 2.496,-1.181 3.491,-1.915m-16.273,-8.76l6.982,-2.685l3.911,10.167l0.499,-0.192c6.867,-2.642 4.544,-7.65 2.611,-12.676l7.059,-2.715c2.11,5.486 4.212,10.491 0.193,15.957l11.834,9.013l0.413,1.075l-7.635,2.936l-9.907,-8.125c-0.862,0.509 -1.706,0.833 -2.588,1.172l3.94,10.244l-6.982,2.685l-10.33,-26.856Z" style="fill:#d69e1d;fill-rule:nonzero;"/><path d="M138.733,179.631l0.422,-0.162l-3.438,-8.939l9.323,-3.587l-0.162,-0.422l-9.323,3.586l-4.486,-11.663l10.473,-4.028l-0.132,-0.345l-10.896,4.19l8.219,21.37Zm-2.257,3.863l-10.33,-26.856l16.727,-6.434l2.361,6.139l-9.744,3.748l2.257,5.87l8.633,-3.32l2.361,6.138l-8.633,3.32l3.35,8.71l-6.982,2.685Z" style="fill:#d69e1d;fill-rule:nonzero;"/><path d="M171.907,166.608l-0.148,-0.385l-10.857,4.176l-4.029,-10.474l9.745,-3.748l-0.148,-0.383l-9.744,3.748l-3.675,-9.552l10.513,-4.044l-0.148,-0.384l-10.934,4.206l8.145,21.178l11.28,-4.338Zm-14.55,-14.928l1.461,3.799l9.131,-3.513l2.346,6.1l-9.131,3.513l1.815,4.718l10.282,-3.955l2.346,6.1l-17.11,6.582l-10.33,-26.856l16.766,-6.448l2.36,6.138l-9.936,3.822Z" style="fill:#d69e1d;fill-rule:nonzero;"/><path d="M195.978,137.134l-5.545,13.407l-12.985,-6.28l-0.499,0.192l6.847,17.801l0.383,-0.148l-6.654,-17.302l13.13,6.312l5.669,-13.543l6.655,17.303l0.384,-0.148l-6.848,-17.802l-0.537,0.208Zm11.702,18.973l-7.021,2.7l-4.604,-11.97l-3.414,8.184l-0.768,0.294l-7.98,-3.801l4.605,11.971l-7.021,2.7l-10.359,-26.932l2.532,-0.974l14.998,7.62l6.218,-15.78l2.455,-0.945l10.359,26.933Z" style="fill:#d69e1d;fill-rule:nonzero;"/><path d="M218.624,133.84l5.215,5.085l-5.601,2.154l0.386,-7.239Zm-2.543,-6.729l-0.039,0.015l-1.207,18.389l14.54,-5.593l-13.294,-12.811Zm-2.077,23.569l0.498,-0.192l0.343,-4.491l14.847,-5.712l3.226,3.12l0.499,-0.192l-17.584,-16.975l-0.231,0.088l-1.598,24.354Zm3.842,1.517l-6.714,2.582l-0.384,-0.997l2.006,-30.853l2.955,-1.136l22.202,21.541l0.383,0.997l-6.713,2.583l-2.872,-2.772l-10.589,4.073l-0.274,3.982Z" style="fill:#d69e1d;fill-rule:nonzero;"/><path d="M236.142,117.325l-0.422,0.163l8.205,21.33l10.78,-4.146l-0.132,-0.345l-10.36,3.984l-8.071,-20.986Zm19.918,13.083l2.375,6.177l-16.65,6.404l-10.33,-26.856l6.906,-2.656l7.954,20.679l9.745,-3.748Z" style="fill:#d69e1d;fill-rule:nonzero;"/><path d="M276.564,126.353l-0.148,-0.384l-10.857,4.176l-4.029,-10.474l9.745,-3.748l-0.147,-0.384l-9.746,3.749l-3.673,-9.553l10.512,-4.043l-0.147,-0.385l-10.935,4.206l8.145,21.179l11.28,-4.339Zm-14.55,-14.927l1.462,3.798l9.131,-3.512l2.345,6.1l-9.13,3.512l1.814,4.719l10.283,-3.955l2.346,6.1l-17.111,6.582l-10.33,-26.857l16.766,-6.448l2.361,6.139l-9.937,3.822Z" style="fill:#d69e1d;fill-rule:nonzero;"/><path d="M280.55,106.718c1.886,4.56 5.374,4.012 9.406,2.813c3.824,-1.163 7.576,-2.518 9.361,2.125c2.287,5.946 -8.074,11.297 -12.98,7.59l-0.46,0.178c4.873,4.423 16.371,-1.408 13.862,-7.93c-1.83,-4.758 -5.838,-3.613 -9.869,-2.414c-3.863,1.177 -7.207,1.758 -8.86,-2.539c-2.355,-6.008 7.187,-11.088 11.908,-7.399l0.499,-0.192c-4.957,-4.302 -15.514,1.344 -12.867,7.768m15.697,6.119c-0.723,-1.881 -3.066,-1.332 -5.81,-0.452c-5.994,1.821 -10.598,1.302 -12.918,-4.501c-4.687,-11.498 16.185,-19.525 20.488,-7.88l-6.522,2.509c-1.374,-3.568 -8.468,-0.487 -7.473,2.786c0.629,2.092 2.786,1.747 5.306,1.086c5.555,-1.476 11.038,-2.792 13.62,3.922c4.338,11.279 -17.412,19.997 -21.804,8.122l6.638,-2.553c1.313,3.415 9.686,0.106 8.475,-3.039" style="fill:#d69e1d;fill-rule:nonzero;"/><path d="M77.234,75.562c-0.571,0 -1.143,-0.218 -1.579,-0.654c-0.873,-0.873 -0.873,-2.287 0,-3.16l15.128,-15.129c0.872,-0.872 2.288,-0.872 3.16,0c0.873,0.873 0.873,2.287 0,3.16l-15.129,15.129c-0.436,0.436 -1.008,0.654 -1.58,0.654" style="fill:#fff;fill-rule:nonzero;"/><path d="M92.503,91.072c-0.572,0 -1.143,-0.218 -1.58,-0.654l-15.226,-15.227c-0.873,-0.872 -0.873,-2.287 0,-3.16c0.872,-0.872 2.287,-0.872 3.16,0.001l15.226,15.226c0.873,0.873 0.873,2.288 0,3.16c-0.436,0.436 -1.008,0.654 -1.58,0.654" style="fill:#fff;fill-rule:nonzero;"/><path d="M322.786,149.239c0.566,0 1.133,0.216 1.565,0.648c0.865,0.865 0.865,2.267 0,3.132l-14.994,14.995c-0.865,0.864 -2.267,0.864 -3.132,0c-0.865,-0.865 -0.865,-2.267 0,-3.132l14.995,-14.995c0.432,-0.432 0.999,-0.648 1.566,-0.648" style="fill:#fff;fill-rule:nonzero;"/><path d="M307.652,133.866c0.567,0 1.133,0.217 1.566,0.649l15.091,15.091c0.865,0.865 0.865,2.268 0,3.133c-0.865,0.864 -2.267,0.864 -3.132,-0.001l-15.091,-15.092c-0.865,-0.865 -0.865,-2.267 0,-3.131c0.432,-0.432 0.999,-0.649 1.566,-0.649" style="fill:#fff;fill-rule:nonzero;"/><path d="M296.811,134.201c0.55,-0.134 1.152,-0.059 1.675,0.258c1.046,0.634 1.38,1.996 0.745,3.041l-14.025,30.05c-0.634,1.046 -1.996,1.379 -3.042,0.745c-1.046,-0.634 -1.379,-1.996 -0.745,-3.041l14.025,-30.05c0.317,-0.523 0.816,-0.868 1.367,-1.003Z" style="fill:none;stroke:#fff;stroke-width:1px;"/></g></svg>