<?xml version="1.0" encoding="UTF-8" standalone="no"?><!DOCTYPE svg PUBLIC "-//W3C//DTD SVG 1.1//EN" "http://www.w3.org/Graphics/SVG/1.1/DTD/svg11.dtd"><svg width="100%" height="100%" viewBox="0 0 400 225" version="1.1" xmlns="http://www.w3.org/2000/svg" xmlns:xlink="http://www.w3.org/1999/xlink" xml:space="preserve" xmlns:serif="http://www.serif.com/" style="fill-rule:evenodd;clip-rule:evenodd;stroke-miterlimit:10;"><g id="Layer-1" serif:id="Layer 1"><path d="M98.546,120.044c-5.939,2.284 -13.716,0.202 -16.797,-7.808c-3.099,-8.057 1.26,-14.86 7.199,-17.144c4.143,-1.594 8.315,-1.19 11.722,1.621l0.553,-0.212c-3.588,-3.007 -8.107,-3.489 -12.434,-1.824c-6.215,2.39 -10.723,9.357 -7.501,17.736c3.206,8.333 11.237,10.528 17.435,8.091c4.42,-1.7 7.621,-5.468 7.996,-10.262l-0.552,0.213c-0.521,4.691 -3.339,7.943 -7.621,9.589m-11.121,-28.912c6.676,-2.567 15.303,-1.711 19.857,6.42l-8.103,3.117c-2.408,-2.826 -5.414,-3.361 -8.867,-2.033c-4.834,1.86 -6.612,6.718 -4.558,12.059c1.824,4.742 6.548,7.681 11.446,5.85c3.499,-1.346 5.634,-4.176 5.181,-7.965l8.103,-3.116c2.309,9.576 -3.538,15.947 -10.398,18.585c-8.177,3.198 -18.589,0.862 -22.849,-10.078c-4.169,-10.975 1.993,-19.687 10.188,-22.839" style="fill:#fff;fill-rule:nonzero;"/><path d="M138.024,90.643c4.498,11.694 -11.661,17.909 -16.16,6.215c-4.462,-11.602 11.698,-17.817 16.16,-6.215m-20.118,7.738c6.48,16.85 30.435,7.267 24.078,-9.261c-6.34,-16.482 -30.542,-7.543 -24.078,9.261m24.538,-9.438c-6.658,-17.311 -31.639,-7.649 -24.999,9.615c6.658,17.311 31.657,7.695 24.999,-9.615m-29.05,11.173c-8.571,-22.282 24.485,-34.996 33.055,-12.714c8.588,22.329 -24.467,35.043 -33.055,12.714" style="fill:#fff;fill-rule:nonzero;"/><path d="M168.111,88.9l-3.913,1.506l-6.623,-17.219l3.913,-1.505c10.267,-3.949 16.89,13.27 6.623,17.218m-8.096,-20.774l-7.642,2.94l9.367,24.354l7.643,-2.94c15.451,-5.995 6.137,-30.212 -9.368,-24.354m-0.177,-0.46l-8.056,3.099l9.74,25.321l8.056,-3.099c16.021,-6.162 6.282,-31.483 -9.74,-25.321m11.16,28.738l-12.154,4.675l-12.396,-32.227l12.154,-4.675c21.029,-7.982 33.354,24.061 12.396,32.227" style="fill:#fff;fill-rule:nonzero;"/><path d="M202.253,80.525l-0.177,-0.461l-4.788,1.842l-9.438,-24.538l4.42,-1.7l-0.177,-0.461l-9.346,3.595l0.177,0.461l4.465,-1.718l9.439,24.538l-4.88,1.877l0.177,0.461l10.128,-3.896Zm-11.92,8.443l-2.78,-7.228l4.097,-1.576l-6.853,-17.817l-3.775,1.452l-2.762,-7.182l15.699,-6.038l2.762,7.182l-3.775,1.452l6.853,17.817l4.098,-1.576l2.779,7.228l-16.343,6.286Z" style="fill:#fff;fill-rule:nonzero;"/><path d="M206.93,53.94c4.409,1.845 8.854,3.781 13.171,5.662c4.253,1.852 8.488,3.659 12.851,5.521l0.369,-0.141l-8.695,-22.605l-0.506,0.194l8.394,21.823c-4.445,-1.937 -8.844,-3.892 -13.282,-5.673c-4.161,-1.888 -8.413,-3.74 -12.65,-5.546l-0.505,0.194l8.676,22.559l0.553,-0.213l-8.376,-21.775Zm5.132,26.67l-12.449,-32.365l2.993,-1.151l22.424,9.661l-6.074,-15.791l8.426,-3.241l12.412,32.273l-2.946,1.133l-22.36,-9.633l6.091,15.838l-8.517,3.276Z" style="fill:#fff;fill-rule:nonzero;"/><path d="M261.102,57.52c-6.997,2.691 -14.034,-0.627 -16.796,-7.809c-2.727,-7.09 0.201,-14.452 7.216,-17.098c3.777,-1.452 8.096,-1.212 11.333,1.296l0.553,-0.213c-3.453,-2.794 -8.223,-2.967 -12.045,-1.498c-6.261,2.409 -10.787,9.329 -7.564,17.708c3.223,8.38 11.237,10.528 17.48,8.074c6.538,-2.514 9.888,-9.194 7.285,-15.962l-0.194,-0.506l-8.518,3.276l0.195,0.506l8.011,-3.08c2.457,6.664 -0.557,12.844 -6.956,15.306m-11.137,-28.959c6.508,-2.45 14.569,-1.692 19.216,5.717l-8.103,3.116c-2.397,-2.25 -4.941,-2.539 -8.209,-1.282c-5.202,2.001 -6.452,7.133 -4.558,12.058c2.054,5.341 6.53,7.636 11.411,5.759c3.314,-1.275 5.096,-2.965 5.382,-6.616l-6.859,2.639l-2.745,-7.136l15.239,-5.862c1.424,3.152 2.609,6.237 2.71,9.792c0.283,7.608 -4.849,12.54 -10.787,14.825c-8.195,3.151 -18.589,0.861 -22.868,-10.124c-4.186,-11.022 1.976,-19.733 10.171,-22.886" style="fill:#fff;fill-rule:nonzero;"/><path d="M74.552,166.459l-6.583,2.532l-2.037,-5.294l6.537,-2.515c3.315,-1.275 5.398,4.002 2.083,5.277m-6.162,-11.899l-5.202,2.001l-1.966,-5.11l5.156,-1.984c3.315,-1.275 5.281,3.835 2.012,5.093m7.951,15.175c3.176,-1.222 4.678,-5.288 3.42,-8.556c-1.257,-3.269 -4.883,-4.728 -8.06,-3.507l-10.68,4.109l4.639,12.063l10.681,-4.109Zm-6.088,-11.981c3.314,-1.274 4.756,-4.947 3.498,-8.216c-1.239,-3.222 -4.898,-5.04 -8.12,-3.8l-9.392,3.612l4.622,12.017l9.392,-3.613Zm6.265,12.442c3.499,-1.346 5.032,-5.741 3.704,-9.194c-1.169,-3.039 -4.615,-4.99 -7.753,-3.942l-0.071,-0.184c2.136,-1.455 2.735,-5.121 1.814,-7.515c-1.346,-3.499 -5.287,-5.365 -8.74,-4.037l-9.852,3.79l9.756,25.367l11.142,-4.285Zm1.125,-15.761c3.138,0.326 5.302,2.242 6.4,5.097c2.114,5.635 0.46,11.503 -6.123,14.035l-15.101,5.808l-12.395,-32.227l13.765,-5.295c5.571,-2.143 11.702,0.468 13.845,6.038c0.743,1.934 0.679,4.654 -0.391,6.544" style="fill:#fff;fill-rule:nonzero;"/><path d="M87.583,136.45l-0.506,0.195l9.845,25.597l12.937,-4.976l-0.159,-0.415l-12.431,4.782l-9.686,-25.183Zm23.901,15.698l2.851,7.412l-19.98,7.685l-12.396,-32.227l8.287,-3.187l9.544,24.815l11.694,-4.498Z" style="fill:#fff;fill-rule:nonzero;"/><path d="M126.364,133.265l6.258,6.102l-6.722,2.586l0.464,-8.688Zm-3.053,-8.074l-0.046,0.018l-1.448,22.066l17.448,-6.711l-15.954,-15.373Zm-2.492,28.282l0.598,-0.23l0.41,-5.39l17.818,-6.853l3.871,3.743l0.598,-0.23l-21.1,-20.37l-0.276,0.106l-1.919,29.224Zm4.61,1.82l-8.056,3.099l-0.46,-1.196l2.407,-37.023l3.545,-1.364l26.642,25.849l0.461,1.197l-8.057,3.099l-3.445,-3.325l-12.707,4.887l-0.33,4.777Z" style="fill:#fff;fill-rule:nonzero;"/><path d="M167.38,134.93c-5.939,2.284 -13.716,0.202 -16.797,-7.808c-3.099,-8.058 1.261,-14.86 7.2,-17.145c4.143,-1.594 8.314,-1.19 11.722,1.622l0.552,-0.212c-3.587,-3.007 -8.106,-3.489 -12.434,-1.824c-6.215,2.39 -10.723,9.357 -7.5,17.736c3.204,8.332 11.237,10.527 17.434,8.091c4.42,-1.7 7.621,-5.468 7.996,-10.262l-0.552,0.213c-0.521,4.691 -3.339,7.942 -7.621,9.589m-11.12,-28.913c6.675,-2.567 15.302,-1.71 19.857,6.422l-8.103,3.116c-2.409,-2.826 -5.415,-3.361 -8.868,-2.033c-4.834,1.86 -6.612,6.718 -4.558,12.059c1.824,4.742 6.549,7.681 11.446,5.849c3.5,-1.345 5.634,-4.175 5.181,-7.964l8.103,-3.116c2.309,9.576 -3.537,15.947 -10.398,18.585c-8.176,3.199 -18.588,0.862 -22.849,-10.078c-4.168,-10.975 1.994,-19.688 10.189,-22.84" style="fill:#fff;fill-rule:nonzero;"/><path d="M197.567,108.575l13.282,10.216l0.554,-0.213l-13.493,-10.347c4.919,-4.112 4.738,-9.803 2.603,-15.218l-0.461,0.178c2.036,5.293 1.948,9.872 -1.094,13.368c-1.321,1.512 -3.375,3.042 -5.769,3.963l-4.558,1.753l-4.922,-12.798l-0.599,0.23l9.969,25.919l0.599,-0.23l-4.905,-12.753l4.604,-1.77c1.381,-0.531 2.996,-1.417 4.19,-2.298m-19.528,-10.512l8.379,-3.223l4.692,12.201l0.599,-0.23c8.241,-3.17 5.453,-9.18 3.133,-15.211l8.471,-3.258c2.532,6.583 5.054,12.589 0.232,19.148l14.201,10.816l0.495,1.289l-9.161,3.524l-11.889,-9.75c-1.034,0.61 -2.047,0.999 -3.106,1.406l4.728,12.292l-8.379,3.223l-12.395,-32.227Z" style="fill:#fff;fill-rule:nonzero;"/><path d="M126.48,193.058l0.506,-0.195l-4.125,-10.727l11.187,-4.304l-0.195,-0.507l-11.188,4.303l-5.382,-13.995l12.568,-4.834l-0.16,-0.414l-13.074,5.029l9.863,25.644Zm-2.709,4.635l-12.396,-32.227l20.073,-7.721l2.833,7.366l-11.693,4.498l2.708,7.044l10.36,-3.984l2.833,7.366l-10.359,3.984l4.02,10.451l-8.379,3.223Z" style="fill:#fff;fill-rule:nonzero;"/><path d="M166.288,177.429l-0.177,-0.461l-13.029,5.011l-4.834,-12.568l11.693,-4.499l-0.177,-0.46l-11.693,4.498l-4.41,-11.462l12.615,-4.852l-0.177,-0.461l-13.121,5.046l9.775,25.414l13.535,-5.206Zm-17.459,-17.913l1.752,4.558l10.958,-4.215l2.815,7.321l-10.957,4.214l2.178,5.663l12.338,-4.746l2.816,7.32l-20.533,7.898l-12.396,-32.227l20.119,-7.738l2.833,7.366l-11.923,4.586Z" style="fill:#fff;fill-rule:nonzero;"/><path d="M195.174,142.06l-6.654,16.089l-15.582,-7.536l-0.599,0.23l8.216,21.362l0.46,-0.177l-7.985,-20.763l15.755,7.574l6.803,-16.251l7.987,20.763l0.46,-0.177l-8.217,-21.362l-0.644,0.248Zm14.042,22.768l-8.425,3.24l-5.525,-14.364l-4.097,9.821l-0.921,0.354l-9.576,-4.562l5.525,14.365l-8.425,3.24l-12.431,-32.318l3.039,-1.169l17.997,9.144l7.462,-18.936l2.946,-1.134l12.431,32.319Z" style="fill:#fff;fill-rule:nonzero;"/><path d="M222.349,138.108l6.258,6.102l-6.721,2.585l0.463,-8.687Zm-3.052,-8.074l-0.047,0.017l-1.448,22.067l17.448,-6.712l-15.953,-15.372Zm-2.493,28.282l0.599,-0.231l0.41,-5.389l17.817,-6.854l3.871,3.744l0.599,-0.23l-21.101,-20.371l-0.277,0.107l-1.918,29.224Zm4.611,1.82l-8.057,3.099l-0.46,-1.197l2.407,-37.023l3.545,-1.363l26.643,25.849l0.46,1.197l-8.056,3.099l-3.446,-3.326l-12.707,4.887l-0.329,4.778Z" style="fill:#fff;fill-rule:nonzero;"/><path d="M243.37,118.29l-0.506,0.195l9.846,25.597l12.936,-4.976l-0.159,-0.414l-12.432,4.781l-9.685,-25.183Zm23.901,15.7l2.851,7.411l-19.98,7.686l-12.396,-32.227l8.288,-3.187l9.544,24.814l11.693,-4.497Z" style="fill:#fff;fill-rule:nonzero;"/><path d="M291.876,129.124l-0.177,-0.461l-13.028,5.011l-4.835,-12.569l11.694,-4.498l-0.177,-0.46l-11.694,4.498l-4.408,-11.463l12.614,-4.852l-0.177,-0.461l-13.122,5.047l9.775,25.414l13.535,-5.206Zm-17.459,-17.913l1.754,4.558l10.957,-4.215l2.815,7.321l-10.957,4.214l2.178,5.662l12.339,-4.745l2.815,7.32l-20.533,7.898l-12.397,-32.228l20.12,-7.738l2.833,7.366l-11.924,4.587Z" style="fill:#fff;fill-rule:nonzero;"/><path d="M296.66,105.562c2.263,5.472 6.449,4.814 11.287,3.375c4.589,-1.395 9.091,-3.021 11.233,2.55c2.745,7.136 -9.689,13.557 -15.576,9.108l-0.551,0.213c5.847,5.309 19.644,-1.689 16.634,-9.516c-2.197,-5.708 -7.006,-4.335 -11.843,-2.896c-4.635,1.412 -8.648,2.11 -10.632,-3.046c-2.826,-7.211 8.624,-13.306 14.29,-8.879l0.598,-0.231c-5.948,-5.163 -18.616,1.613 -15.44,9.322m18.837,7.342c-0.868,-2.256 -3.68,-1.598 -6.973,-0.542c-7.193,2.185 -12.717,1.562 -15.501,-5.401c-5.624,-13.797 19.421,-23.43 24.585,-9.456l-7.827,3.01c-1.647,-4.281 -10.16,-0.584 -8.967,3.344c0.755,2.51 3.344,2.096 6.367,1.303c6.667,-1.771 13.246,-3.35 16.345,4.706c5.205,13.536 -20.895,23.997 -26.165,9.746l7.965,-3.063c1.576,4.098 11.624,0.128 10.171,-3.647" style="fill:#fff;fill-rule:nonzero;"/><path d="M52.681,68.175c-0.686,0 -1.372,-0.262 -1.896,-0.786c-1.047,-1.047 -1.047,-2.744 0,-3.791l18.155,-18.155c1.047,-1.047 2.745,-1.047 3.791,0c1.048,1.047 1.048,2.745 0,3.792l-18.154,18.154c-0.524,0.524 -1.21,0.786 -1.896,0.786" style="fill:#d69e1d;fill-rule:nonzero;"/><path d="M71.004,86.787c-0.687,0 -1.373,-0.262 -1.896,-0.786l-18.272,-18.271c-1.047,-1.047 -1.047,-2.745 0,-3.792c1.047,-1.047 2.745,-1.047 3.792,0l18.272,18.272c1.047,1.047 1.047,2.745 0,3.791c-0.524,0.524 -1.21,0.786 -1.896,0.786" style="fill:#d69e1d;fill-rule:nonzero;"/><path d="M347.343,156.586c0.68,0 1.36,0.26 1.879,0.779c1.037,1.038 1.037,2.72 0,3.757l-17.994,17.994c-1.037,1.038 -2.72,1.038 -3.758,0c-1.038,-1.037 -1.038,-2.72 0,-3.758l17.994,-17.993c0.518,-0.519 1.199,-0.779 1.879,-0.779" style="fill:#d69e1d;fill-rule:nonzero;"/><path d="M329.183,138.14c0.68,0 1.36,0.259 1.879,0.778l18.109,18.11c1.038,1.038 1.038,2.72 0,3.758c-1.038,1.038 -2.72,1.037 -3.758,0l-18.11,-18.11c-1.037,-1.038 -1.037,-2.721 0.001,-3.758c0.518,-0.519 1.198,-0.778 1.879,-0.778" style="fill:#d69e1d;fill-rule:nonzero;"/><path d="M316.173,138.542c0.66,-0.162 1.382,-0.072 2.01,0.309c1.255,0.76 1.656,2.395 0.894,3.649l-16.83,36.06c-0.761,1.255 -2.396,1.655 -3.65,0.894c-1.255,-0.761 -1.655,-2.395 -0.894,-3.649l16.83,-36.06c0.38,-0.628 0.979,-1.042 1.64,-1.203Z" style="fill:none;stroke:#d69e1d;stroke-width:1px;"/></g></svg>